<?xml version="1.0" encoding="iso-8859-1"?>
<!-- Generator: Adobe Illustrator 19.0.0, SVG Export Plug-In . SVG Version: 6.00 Build 0)  -->
<svg version="1.1" id="Layer_1" xmlns="http://www.w3.org/2000/svg" xmlns:xlink="http://www.w3.org/1999/xlink" x="0px" y="0px"
	 viewBox="0 0 512 512" style="enable-background:new 0 0 512 512;" xml:space="preserve">
<g>
	<rect x="15.2" y="25.6" style="fill:#0B3249;" width="20.8" height="296"/>
	<rect x="109.6" y="25.6" style="fill:#0B3249;" width="10.4" height="296"/>
	<rect x="63.2" y="25.6" style="fill:#0B3249;" width="2.4" height="296"/>
	<rect x="272.8" y="25.6" style="fill:#0B3249;" width="2.4" height="296"/>
	<rect x="248" y="25.6" style="fill:#0B3249;" width="10.4" height="296"/>
	<rect x="151.2" y="25.6" style="fill:#0B3249;" width="20.8" height="296"/>
	<rect x="300" y="25.6" style="fill:#0B3249;" width="52" height="296"/>
	<rect x="424" y="25.6" style="fill:#0B3249;" width="72.8" height="296"/>
	<rect x="205.6" y="25.6" style="fill:#0B3249;" width="20.8" height="296"/>
	<rect x="378.4" y="25.6" style="fill:#0B3249;" width="20.8" height="296"/>
	<rect x="15.2" y="400.8" style="fill:#0B3249;" width="20.8" height="85.6"/>
	<rect x="109.6" y="400.8" style="fill:#0B3249;" width="10.4" height="85.6"/>
	<rect x="63.2" y="400.8" style="fill:#0B3249;" width="2.4" height="85.6"/>
	<rect x="272.8" y="400.8" style="fill:#0B3249;" width="2.4" height="85.6"/>
	<rect x="248" y="400.8" style="fill:#0B3249;" width="10.4" height="85.6"/>
	<rect x="151.2" y="400.8" style="fill:#0B3249;" width="20.8" height="85.6"/>
	<rect x="300" y="400.8" style="fill:#0B3249;" width="52" height="85.6"/>
	<rect x="424" y="400.8" style="fill:#0B3249;" width="72.8" height="85.6"/>
	<rect x="205.6" y="400.8" style="fill:#0B3249;" width="20.8" height="85.6"/>
	<rect x="378.4" y="400.8" style="fill:#0B3249;" width="20.8" height="85.6"/>
</g>
<path style="fill:#E05407;" d="M507.2,364H4.8c-2.4,0-4.8-2.4-4.8-4.8s2.4-4.8,4.8-4.8h502.4c2.4,0,4.8,2.4,4.8,4.8
	C512,361.6,509.6,364,507.2,364z"/>
<path style="fill:#FF7631;" d="M507.2,354.4H4.8c-1.6,0-3.2,0.8-4,2.4c0.8,2.4,2.4,3.2,4,3.2h502.4c1.6,0,3.2-0.8,4-2.4
	C510.4,355.2,508.8,354.4,507.2,354.4z"/>
<g>
</g>
<g>
</g>
<g>
</g>
<g>
</g>
<g>
</g>
<g>
</g>
<g>
</g>
<g>
</g>
<g>
</g>
<g>
</g>
<g>
</g>
<g>
</g>
<g>
</g>
<g>
</g>
<g>
</g>
</svg>
