<?xml version="1.0" encoding="iso-8859-1"?>
<!-- Generator: Adobe Illustrator 19.0.0, SVG Export Plug-In . SVG Version: 6.00 Build 0)  -->
<svg version="1.1" id="Layer_1" xmlns="http://www.w3.org/2000/svg" xmlns:xlink="http://www.w3.org/1999/xlink" x="0px" y="0px"
	 viewBox="0 0 512 512" style="enable-background:new 0 0 512 512;" xml:space="preserve">
<path style="fill:#BDC3C7;" d="M512,154.483v247.172c0,19.5-15.81,35.31-35.31,35.31h-13.241l-48.552-97.103H97.103l-48.552,97.103
	H35.31c-19.5,0-35.31-15.81-35.31-35.31V154.483c0-19.5,15.81-35.31,35.31-35.31H476.69C496.19,119.172,512,134.983,512,154.483z"/>
<path style="fill:#F5EFCA;" d="M432.552,48.552v70.621H79.448V48.552c0-19.5,15.81-35.31,35.31-35.31h282.483
	C416.742,13.241,432.552,29.052,432.552,48.552z"/>
<path style="fill:#3F5C6C;" d="M459.034,313.379v114.759l-41.666-83.421c-1.492-2.966-4.529-4.846-7.857-4.855H102.577
	c-3.328,0.009-6.365,1.889-7.857,4.855l-41.754,83.421V313.379c0-4.873,3.955-8.828,8.828-8.828h388.414
	C455.08,304.552,459.034,308.507,459.034,313.379z"/>
<path style="fill:#F9EAB0;" d="M465.743,498.759H46.257c-9.754-0.009-17.655-7.91-17.646-17.664c0-2.719,0.636-5.411,1.845-7.848
	L94.72,344.806c1.492-2.966,4.529-4.846,7.857-4.855h306.847c3.328,0.009,6.365,1.889,7.857,4.855l64.265,128.441
	c4.343,8.73,0.777,19.332-7.954,23.667C471.155,498.123,468.462,498.759,465.743,498.759z"/>
<g>
	<path style="fill:#3F5C6C;" d="M379.586,392.828H132.414c-4.873,0-8.828-3.955-8.828-8.828s3.955-8.828,8.828-8.828h247.172
		c4.873,0,8.828,3.955,8.828,8.828S384.459,392.828,379.586,392.828z"/>
	<path style="fill:#3F5C6C;" d="M397.241,428.138H114.759c-4.873,0-8.828-3.955-8.828-8.828c0-4.873,3.955-8.828,8.828-8.828
		h282.483c4.873,0,8.828,3.955,8.828,8.828C406.069,424.183,402.114,428.138,397.241,428.138z"/>
	<path style="fill:#3F5C6C;" d="M432.552,463.448H79.448c-4.873,0-8.828-3.955-8.828-8.828c0-4.873,3.955-8.828,8.828-8.828h353.103
		c4.873,0,8.828,3.955,8.828,8.828C441.379,459.493,437.425,463.448,432.552,463.448z"/>
</g>
<g>
</g>
<g>
</g>
<g>
</g>
<g>
</g>
<g>
</g>
<g>
</g>
<g>
</g>
<g>
</g>
<g>
</g>
<g>
</g>
<g>
</g>
<g>
</g>
<g>
</g>
<g>
</g>
<g>
</g>
</svg>
